<svg xmlns="http://www.w3.org/2000/svg" xmlns:xlink="http://www.w3.org/1999/xlink" id="Graphics" x="0" y="0" version="1.1" viewBox="0 0 439.8 227.7" style="enable-background:new 0 0 439.8 227.7" xml:space="preserve"><style type="text/css">.st0{opacity:.15}.st1,.st2{opacity:.5;fill:#377dff;enable-background:new}.st2{opacity:.47}.st3{fill:#00c9a7}.st4{fill:none;stroke:#1e2022;stroke-miterlimit:10}.st5{fill:#377dff}.st6{fill:#fff}.st7{fill:#d8d8d8}.st8{fill:#ececec}.st9{fill:#b7d2f9}.st10{fill:#f2f3f7}.st11{fill:#dfe2ec}.st12{fill:#f3f4f9}.st13{fill:#e7eaf3}.st14{fill:#de4437}.st15{fill:#ffc107}.st16{fill:#fec55e}.st17{opacity:.2;fill:#231f20;enable-background:new}.st18{fill:#717386}.st19{fill:#4d5068}.st20{fill:#9a9dd0}.st21{fill:#9e9e9e}.st22{fill:#c5c5c5}.st23{fill:#8184c4}.st24{opacity:.3;fill:#414042;enable-background:new}.st25{fill:#212121}.st26{fill:#fed17e}.st27{fill:#f1f2f2}.st28{fill:#414042}.st29{fill:#191c3c}.st30{fill:#474963}.st31{fill:#b1b1b1}.st32{opacity:.3}.st33{fill:#bf9447}.st34{opacity:.3;fill:#8c98a4;enable-background:new}.st35{fill:#f5f7f9}.st36{opacity:.2;fill:#191c3c;enable-background:new}.st37{fill:#fcd991}.st38{opacity:.3;fill:#231f20;enable-background:new}.st39{fill:#fdfdfe}.st40{fill:#575a8f}.st41{fill:#fde1a7}.st42{opacity:.3;fill:#191c3c;enable-background:new}.st43{fill:#71a2ea}.st44{fill:#6371c5}.st45{fill:#bda36d}.st46{fill:#ddb758}.st47{fill:#093a66}.st48{fill:#272834}.st49{fill:#efdcb4}.st50{fill:#2e5f7a}.st51{fill:#5891ed}.st52{fill:#bf9855}.st53{fill:#feca71}.st54{fill:#e2c076}.st55{fill:#113651}.st56{fill:#1e2022}.st57{fill:#db6767}.st58{fill:#d15a5a}</style><g id="Layer_6" class="st0"><ellipse cx="426.6" cy="146.7" class="st1" rx="10.4" ry="10.4"/><path d="M287.7,17.2c0,7.5-6.1,13.5-13.5,13.5c-7.5,0-13.5-6.1-13.5-13.5c0-7.5,6.1-13.5,13.5-13.5 C281.6,3.6,287.7,9.7,287.7,17.2z" class="st1"/><path d="M101.8,34.4c0,3.8-3.1,6.9-6.9,6.9S88,38.2,88,34.4s3.1-6.9,6.9-6.9S101.8,30.6,101.8,34.4z" class="st1"/><path d="M344.1,47.5c0,3.8-3.1,6.9-6.9,6.9s-6.9-3.1-6.9-6.9c0-3.8,3.1-6.9,6.9-6.9S344.1,43.7,344.1,47.5z" class="st1"/><circle cx="179.8" cy="6.9" r="6.9" class="st1"/><path d="M439.8,176.9c0,1.6-1.3,2.8-2.8,2.8c-1.6,0-2.8-1.3-2.8-2.8c0-1.6,1.3-2.8,2.8-2.8 C438.6,174,439.8,175.3,439.8,176.9z" class="st1"/><path d="M329.9,22.7c0,1.2-1,2.1-2.1,2.1c-1.2,0-2.1-1-2.1-2.1c0-1.2,1-2.1,2.1-2.1S329.9,21.5,329.9,22.7z" class="st1"/><circle cx="122.1" cy="6.9" r="2.8" class="st1"/><path d="M25.9,67c0,2-1.6,3.7-3.7,3.7c-2,0-3.7-1.6-3.7-3.7c0-2,1.6-3.7,3.7-3.7C24.2,63.4,25.9,65,25.9,67z" class="st1"/><path d="M433.9,101.9c0,2-1.6,3.7-3.7,3.7c-2,0-3.7-1.6-3.7-3.7c0-2,1.6-3.7,3.7-3.7 C432.3,98.2,433.9,99.9,433.9,101.9z" class="st1"/><ellipse cx="58.8" cy="55.5" class="st1" rx="15.6" ry="15.6"/><path d="M12,183.3c0,2-1.6,3.7-3.7,3.7c-2,0-3.7-1.6-3.7-3.7s1.6-3.7,3.7-3.7C10.3,179.6,12,181.3,12,183.3z" class="st1"/><circle cx="406.7" cy="47.5" r="15.1" class="st1"/><ellipse cx="12" cy="115.2" class="st1" rx="12" ry="12"/><path d="M424.6,227.4c0-28.2-6-55.1-16.8-79.3c3.9-8.1,6.1-17.1,6.1-26.7c0-34-27.5-61.5-61.5-61.5 c-6.4,0-12.5,1-18.3,2.8C303.9,43.5,268,32.3,229.5,32.3c-4.8,0-9.6,0.2-14.3,0.5c-8.4-6.3-18.9-10.1-30.2-10.1 c-21.4,0-39.7,13.4-46.9,32.3c-14.8,7.9-28.5,17.6-40.7,28.8c-4-0.9-8.1-1.4-12.4-1.4c-30.8,0-55.7,24.9-55.7,55.7 c0,13.4,4.7,25.7,12.6,35.3c-4.9,17.1-7.6,35.2-7.6,53.9L424.6,227.4L424.6,227.4z" class="st2"/><path d="M370.1,227c0-78.3-63.4-141.7-141.7-141.7S86.7,148.7,86.7,227H370.1z" class="st2"/></g><g id="Layer_13"><g><g><path d="M79.6,136.9c-0.1,0-0.2,0.1-0.3,0.1c-2.7,1.3-4.2,1.1-6.8-0.1c-2.5-1.1-4.8-2.5-6.9-4.3 c-2.6-2.3-4.6-5.3-5-8.7c-0.1-0.8-0.1-1.6,0.4-2.2c0.6-0.9,1.9-1,2.9-0.6c1,0.4,1.8,1.1,2.5,1.9c0.3,0.3,0.7,0.6,1.1,0.7 c0.4,0.1,1,0,1.2-0.4c0.4-0.6-0.3-1.3-0.8-1.8c-1.3-1.1-2.5-1.7-3.8-2.6c-1.7-1.2-3.2-2.6-4.2-4.5c-0.9-1.8-1.1-4.1-0.2-5.9 c0.3-0.6,0.7-1.1,1.2-1.4c0.9-0.6,2.1-0.6,3.2-0.3c1.1,0.2,2.1,0.6,3.2,0.8c2.6,0.3,3.6-1.6,3.6-4c0-1.6-0.6-3.2-0.6-4.8 c-0.2-2.8,1.2-5.8,3.8-7.1c2.6-1.2,6.1-0.1,7.1,2.6c1,2.9-1.3,6.2,0.2,9c0.5,0.9,1.6,2.2,2.5,2.7c1.4,0.9,3.5-0.2,5.2-0.1 c0.4,0,0.8,0.1,1,0.3c0.2,0.2,0.3,0.5,0.3,0.7c0.4,2-0.3,4.2-1.9,5.6c-1.7,1.6-4.7,2.4-5.4,4.8c-0.5,1.5-0.3,5.3,2.2,4.9 c0.9-0.1,1.5-1,2.4-1.3c1.1-0.4,2.3,0.4,2.8,1.4s0.3,2.3-0.1,3.3c-0.7,1.7-1.9,3-3.2,4.3C84.7,132.7,83,135.3,79.6,136.9z" class="st3"/></g><line x1="76" x2="76" y1="101.5" y2="175.7" class="st4"/><polyline points="82.9 111.7 76 118.6 69.1 111.7" class="st4"/><polyline points="82.9 125.6 76 132.4 69.1 125.6" class="st4"/></g><g><g><path d="M390.2,179.5c-0.1,0.1-0.2,0.1-0.3,0.2c-3.4,1.6-5.1,1.3-8.4-0.2c-3-1.4-5.9-3-8.4-5.2 c-3.2-2.8-5.6-6.6-6.1-10.8c-0.1-0.9-0.1-2,0.4-2.7c0.8-1,2.3-1.2,3.5-0.7s2.2,1.4,3.1,2.3c0.4,0.4,0.8,0.7,1.4,0.9 c0.5,0.1,1.2,0,1.5-0.5c0.4-0.8-0.3-1.7-1-2.2c-1.6-1.3-3-2.1-4.7-3.2c-2.1-1.5-4-3.2-5.1-5.5s-1.4-5.1-0.2-7.3 c0.4-0.7,0.9-1.3,1.5-1.7c1.2-0.7,2.6-0.7,4-0.4c1.3,0.3,2.6,0.8,4,0.9c3.2,0.3,4.5-1.9,4.4-4.9c0-2-0.7-3.9-0.8-5.9 c-0.2-3.5,1.5-7.2,4.7-8.7c3.1-1.5,7.5-0.1,8.7,3.2c1.2,3.6-1.6,7.6,0.3,11c0.6,1.1,2,2.7,3,3.3c1.8,1.1,4.3-0.2,6.3-0.1 c0.5,0,0.9,0.1,1.3,0.4c0.2,0.2,0.3,0.6,0.4,0.9c0.5,2.5-0.4,5.2-2.3,6.9c-2.1,1.9-5.8,2.9-6.7,5.9c-0.6,1.9-0.3,6.6,2.7,6.1 c1.1-0.2,1.9-1.3,2.9-1.6c1.3-0.4,2.9,0.4,3.4,1.7c0.6,1.3,0.4,2.8-0.1,4.1c-0.8,2.1-2.4,3.7-3.9,5.3 C396.5,174.3,394.4,177.5,390.2,179.5z" class="st3"/></g><line x1="385.8" x2="385.8" y1="135.9" y2="227.2" class="st4"/><polyline points="394.2 148.6 385.8 157 377.3 148.6" class="st4"/><polyline points="394.2 165.5 385.8 174 377.3 165.5" class="st4"/></g><g><line x1="7" x2="25.8" y1="226.9" y2="226.9" class="st4"/></g><g><path d="M429.4,227.2h-26.8c0-2.3-1.8-4.1-4.1-4.1c-2.3,0-4.1,1.8-4.1,4.1" class="st4"/><path d="M396.3,223.6c0-2.3-1.8-4.1-4.1-4.1c-2.3,0-4.1,1.8-4.1,4.1" class="st4"/></g></g><g id="Layer_14"><g id="XMLID_79_"><path id="XMLID_802_" d="M145,217.7H27.7v-72.5c0-0.7,0.6-1.3,1.3-1.3h114.8c0.7,0,1.3,0.6,1.3,1.3v72.5H145z" class="st5"/><rect id="XMLID_799_" width="105.3" height="61.1" x="33.7" y="150.6" class="st6"/><path id="XMLID_76_" d="M151.9,221h-131l0,0c3.7,3.7,8.8,5.8,14.1,5.8h102.9C143.1,226.8,148.1,224.7,151.9,221 L151.9,221z" class="st7"/><rect id="XMLID_75_" width="131" height="3.7" x="20.9" y="217.3" class="st8"/><path id="XMLID_77_" d="M94.5,220.2H78.3c-0.6,0-1-0.5-1-1l0,0c0-0.6,0.5-1,1-1h16.2c0.6,0,1,0.5,1,1l0,0 C95.5,219.7,95,220.2,94.5,220.2z" class="st7"/><path id="XMLID_80_" d="M56.7,169.1H44.1c-1.2,0-2.1-1-2.1-2.1l0,0c0-1.2,1-2.1,2.1-2.1h12.7c1.2,0,2.1,1,2.1,2.1l0,0 C58.9,168.2,57.9,169.1,56.7,169.1z" class="st9"/><path id="XMLID_84_" d="M82.3,180.7H63.7c-1.2,0-2.1-1-2.1-2.1l0,0c0-1.2,1-2.1,2.1-2.1h18.6c1.2,0,2.1,1,2.1,2.1 l0,0C84.4,179.8,83.4,180.7,82.3,180.7z" class="st10"/><path id="XMLID_87_" d="M96.8,180.7h-7.2c-1.2,0-2.1-1-2.1-2.1l0,0c0-1.2,1-2.1,2.1-2.1h7.2c1.2,0,2.1,1,2.1,2.1l0,0 C99,179.8,98,180.7,96.8,180.7z" class="st9"/><path id="XMLID_85_" d="M82.3,192.3h-30c-1.2,0-2.1-1-2.1-2.1l0,0c0-1.2,1-2.1,2.1-2.1h30c1.2,0,2.1,1,2.1,2.1l0,0 C84.4,191.4,83.4,192.3,82.3,192.3z" class="st10"/><path id="XMLID_88_" d="M90.4,192.3h40c1.2,0,2.1-1,2.1-2.1l0,0c0-1.2-1-2.1-2.1-2.1h-40c-1.2,0-2.1,1-2.1,2.1l0,0 C88.3,191.4,89.2,192.3,90.4,192.3z" class="st10"/><path id="XMLID_86_" d="M61,204H44c-1.2,0-2.1-1-2.1-2.1l0,0c0-1.2,1-2.1,2.1-2.1h17c1.2,0,2.1,1,2.1,2.1l0,0 C63.2,203,62.2,204,61,204z" class="st10"/><path id="XMLID_89_" d="M68.2,204h5.5c1.2,0,2.1-1,2.1-2.1l0,0c0-1.2-1-2.1-2.1-2.1h-5.5c-1.2,0-2.1,1-2.1,2.1l0,0 C66.1,203,67,204,68.2,204z" class="st11"/><path id="XMLID_90_" d="M80.8,204h41.3c1.2,0,2.1-1,2.1-2.1l0,0c0-1.2-1-2.1-2.1-2.1H80.8c-1.2,0-2.1,1-2.1,2.1l0,0 C78.7,203,79.7,204,80.8,204z" class="st10"/><path id="XMLID_83_" d="M96.8,169.1H65.3c-1.2,0-2.1-1-2.1-2.1l0,0c0-1.2,1-2.1,2.1-2.1h31.5c1.2,0,2.1,1,2.1,2.1 l0,0C99,168.2,98,169.1,96.8,169.1z" class="st10"/><path id="XMLID_91_" d="M104,169.1h11.1c1.2,0,2.1-1,2.1-2.1l0,0c0-1.2-1-2.1-2.1-2.1H104c-1.2,0-2.1,1-2.1,2.1l0,0 C101.9,168.2,102.8,169.1,104,169.1z" class="st10"/></g></g><g id="Layer_7"><g><path d="M310.7,227.6h-185V39.3c0-2.8,2.3-5.1,5.1-5.1h174.7c2.8,0,5.1,2.3,5.1,5.1v188.3L310.7,227.6L310.7,227.6z" class="st9"/><rect width="172.2" height="163.2" x="132.5" y="64.4" class="st12"/><rect width="141.5" height="54.4" x="147.8" y="76.4" class="st13"/><rect width="100.2" height="54.4" x="189.2" y="76.4" class="st5"/><rect width="141.6" height="23.3" x="147.8" y="76.4" class="st5"/><path d="M181.6,115.3L181.6,115.3c-1.5,0-2.7-1.2-2.7-2.7V94.7c0-1.5,1.2-2.7,2.7-2.7l0,0c1.5,0,2.7,1.2,2.7,2.7v17.9 C184.3,114.1,183.1,115.3,181.6,115.3z" class="st5"/><path d="M171.1,108.4L171.1,108.4c-1.5,0-2.7-1.2-2.7-2.7V94.9c0-1.5,1.2-2.7,2.7-2.7l0,0c1.5,0,2.7,1.2,2.7,2.7v10.8 C173.8,107.2,172.6,108.4,171.1,108.4z" class="st5"/><path d="M176.4,88.9c-1.5,0-2.7,1.2-2.7,2.7v10.8c0,0.1,0,0.1,0,0.2c0.1-1.4,1.2-2.5,2.6-2.5c1.4,0,2.5,1.1,2.6,2.5 c0-0.1,0-0.1,0-0.2V91.6C179,90.1,177.8,88.9,176.4,88.9z" class="st5"/><path d="M186.8,90.6c-1.5,0-2.7,1.2-2.7,2.7v10.8c0,0.1,0,0.1,0,0.2c0.1-1.4,1.2-2.5,2.6-2.5s2.5,1.1,2.6,2.5 c0-0.1,0-0.1,0-0.2V93.2C189.4,91.8,188.3,90.6,186.8,90.6z" class="st5"/><rect width="92.3" height="7.6" x="175.8" y="47" class="st6"/><g><path d="M297.2,48.2h-7c-0.5,0-0.9-0.4-0.9-0.9l0,0c0-0.5,0.4-0.9,0.9-0.9h7c0.5,0,0.9,0.4,0.9,0.9l0,0 C298.1,47.8,297.7,48.2,297.2,48.2z" class="st5"/><path d="M297.2,51.7h-7c-0.5,0-0.9-0.4-0.9-0.9l0,0c0-0.5,0.4-0.9,0.9-0.9h7c0.5,0,0.9,0.4,0.9,0.9l0,0 C298.1,51.3,297.7,51.7,297.2,51.7z" class="st5"/><path d="M297.2,55.1h-7c-0.5,0-0.9-0.4-0.9-0.9l0,0c0-0.5,0.4-0.9,0.9-0.9h7c0.5,0,0.9,0.4,0.9,0.9l0,0 C298.1,54.7,297.7,55.1,297.2,55.1z" class="st5"/></g><circle cx="143.7" cy="50.8" r="3.7" class="st14"/><circle cx="154.6" cy="50.8" r="3.7" class="st15"/><circle cx="165.5" cy="50.8" r="3.7" class="st3"/><rect width="141.5" height="6.7" x="147.8" y="147.1" class="st11"/><rect width="141.5" height="6.7" x="147.8" y="162.9" class="st11"/><rect width="141.5" height="6.7" x="147.8" y="178.6" class="st11"/><rect width="141.5" height="6.7" x="147.8" y="194.4" class="st11"/></g></g><g id="Layer_10"><g><line x1="114.6" x2="114.6" y1="83.3" y2="227.2" class="st4"/><line x1="137.2" x2="137.2" y1="83.3" y2="227.2" class="st4"/><line x1="114.6" x2="137.2" y1="104.4" y2="104.4" class="st4"/><line x1="114.6" x2="137.2" y1="94.6" y2="94.6" class="st4"/><line x1="114.6" x2="137.2" y1="114.1" y2="114.1" class="st4"/><line x1="114.6" x2="137.2" y1="123.8" y2="123.8" class="st4"/><line x1="114.6" x2="137.2" y1="133.5" y2="133.5" class="st4"/><line x1="114.6" x2="137.2" y1="143.2" y2="143.2" class="st4"/><line x1="114.6" x2="137.2" y1="153" y2="153" class="st4"/><line x1="114.6" x2="137.2" y1="162.7" y2="162.7" class="st4"/><line x1="114.6" x2="137.2" y1="172.4" y2="172.4" class="st4"/><line x1="114.6" x2="137.2" y1="182.1" y2="182.1" class="st4"/><line x1="114.6" x2="137.2" y1="191.9" y2="191.9" class="st4"/><line x1="114.6" x2="137.2" y1="201.6" y2="201.6" class="st4"/><line x1="114.6" x2="137.2" y1="211.3" y2="211.3" class="st4"/><line x1="114.6" x2="137.2" y1="221" y2="221" class="st4"/></g></g><g id="Layer_12"><g id="XMLID_334_"><g id="XMLID_404_"><path id="XMLID_408_" d="M76.8,200.5L76.8,200.5h2l2.8-8.4c0.2-0.5,0.1-1-0.1-1.5l-3.7-6.5H77l-0.1,7 c0.1,0.1,0.7,0.3,0.8,0.4c0.5,0.5,0.5,1.4,0,1.9s-1.4,0.5-1.9,0s-0.5-1.4,0-1.9c0.1-0.1,0.5-0.4,0.6-0.4l0.2-6.9H76l-3.8,6.5 c-0.3,0.5-0.3,1-0.2,1.5l2.7,8.4L76.8,200.5z" class="st16"/><polygon id="XMLID_407_" points="74.8 200.5 76.8 200.5 76.8 200.5 78.8 200.5 79.7 197.7 73.9 197.7" class="st17"/><rect id="XMLID_406_" width="8.8" height="15.9" x="72.4" y="199" class="st18"/><rect id="XMLID_405_" width="4.4" height="15.9" x="76.8" y="199" class="st19"/></g><g id="XMLID_392_"><path id="XMLID_401_" d="M92.9,194.8v3.8c0,0.7,0.6,1.3,1.3,1.3c1.4,0,2.5,1.1,2.5,2.5v10.3c0,1.3,1.1,2.4,2.5,2.3 c1.2-0.1,2-1.2,2-2.4v-10.1c0-1.4,1.1-2.5,2.5-2.5c0.7,0,1.3-0.6,1.3-1.3v-3.9L92.9,194.8L92.9,194.8z M98.1,212.5 c0-0.4,0.4-0.8,0.8-0.8s0.8,0.4,0.8,0.8s-0.4,0.8-0.8,0.8S98.1,212.9,98.1,212.5z" class="st20"/><rect id="XMLID_400_" width="12" height="8.7" x="92.9" y="183.1" class="st16"/><rect id="XMLID_399_" width="4.8" height="8.7" x="92.9" y="183.1" class="st16"/><rect id="XMLID_398_" width="12" height="3.5" x="92.9" y="191.3" class="st21"/><rect id="XMLID_397_" width="12" height=".5" x="92.9" y="191.5" class="st22"/><rect id="XMLID_396_" width="12" height=".5" x="92.9" y="192.8" class="st22"/><rect id="XMLID_395_" width="12" height=".5" x="92.9" y="194" class="st22"/><path id="XMLID_394_" d="M98.9,194.8v16.9c-0.4,0-0.8,0.4-0.8,0.8s0.4,0.8,0.8,0.8v1.6c-1.3,0-2.3-1-2.3-2.3v-10.3 c0-1.4-1.1-2.5-2.5-2.5c-0.7,0-1.3-0.6-1.3-1.3v-3.7H98.9z" class="st23"/><path id="XMLID_393_" d="M97,183.1v3.4c0,0.5,0.4,1,1,1l0,0c0.5,0,1-0.4,1-1v-1c0-0.4,0.4-0.8,0.8-0.8l0,0 c0.4,0,0.8,0.4,0.8,0.8v3.6c0,0.4,0.4,0.8,0.8,0.8l0,0c0.4,0,0.8-0.4,0.8-0.8v-1.7l0,0c0.9,0,1.6-0.7,1.6-1.6V183H97V183.1z" class="st5"/></g><path id="XMLID_391_" d="M92.9,183.1v8.1v0.2v0.3v0.2v0.7v0.5v0.7v0.5v0.3v3.8c0,0.7,0.6,1.3,1.3,1.3 c0.1,0,0.3,0,0.4,0v-12.9l-1.4-3.6L92.9,183.1L92.9,183.1z" class="st24"/><g id="XMLID_384_"><rect id="XMLID_390_" width="4.9" height="24.4" x="88.5" y="186.8" class="st16"/><path id="XMLID_389_" d="M93.5,212.4h-4.9v1.4c0,0.6,0.5,1.2,1.2,1.2h2.6c0.6,0,1.2-0.5,1.2-1.2L93.5,212.4 L93.5,212.4z" class="st16"/><rect id="XMLID_388_" width="4.9" height="1.2" x="88.5" y="211.2" class="st25"/><rect id="XMLID_387_" width="2.5" height="24.4" x="88.5" y="186.8" class="st26"/><path id="XMLID_386_" d="M90.8,181.1l-2.3,5.7h4.9l-2.3-5.7C91.1,180.9,90.9,180.9,90.8,181.1z" class="st27"/><path id="XMLID_385_" d="M90.9,180.7l-0.6,1.5h1.3l-0.6-1.5C91,180.7,91,180.7,90.9,180.7z" class="st25"/></g><path id="XMLID_383_" d="M79.3,199l2.3-6.8c0.2-0.5,0.1-1-0.1-1.5l-3.2-5.7l0,0v1.2v0.4v1.2v0.4v1.2v0.4v1.2v0.4v1.2 v0.4v1.2v0.4v1.2v0.4v1.2v0.4v1.2v0.4v1.2v0.4v1.2v0.4v1.2v0.4v1.2v0.4v1.2v0.4v1.2v0.4v1.2v0.4v1.2v0.4v1.2v0.4v0.8 c0,0.6,0.5,1.1,1.1,1.1h1.9v-15.9h-2C79.3,199.8,79.3,199,79.3,199z" class="st24"/><g id="XMLID_359_"><path id="XMLID_382_" d="M80.3,180h3.9c0.6,0,1,0.5,1,1v32.9c0,0.6-0.5,1-1,1h-3.9c-0.6,0-1-0.5-1-1V181 C79.3,180.5,79.7,180,80.3,180z" class="st5"/><path id="XMLID_381_" d="M80.4,180h2.1v34.9h-2.1c-0.6,0-1.1-0.5-1.1-1.1v-32.7C79.3,180.5,79.8,180,80.4,180z" class="st9"/><rect id="XMLID_380_" width=".7" height=".4" x="79.3" y="212.5" class="st28"/><rect id="XMLID_379_" width=".7" height=".4" x="79.3" y="211" class="st28"/><rect id="XMLID_378_" width=".7" height=".4" x="79.3" y="209.4" class="st28"/><rect id="XMLID_377_" width=".7" height=".4" x="79.3" y="207.9" class="st28"/><rect id="XMLID_376_" width="1.5" height=".4" x="79.2" y="206.3" class="st28"/><rect id="XMLID_375_" width=".7" height=".4" x="79.3" y="204.8" class="st28"/><rect id="XMLID_374_" width=".7" height=".4" x="79.3" y="203.2" class="st28"/><rect id="XMLID_373_" width=".7" height=".4" x="79.3" y="201.7" class="st28"/><rect id="XMLID_372_" width=".7" height=".4" x="79.3" y="200.1" class="st28"/><rect id="XMLID_371_" width="1.5" height=".4" x="79.2" y="198.6" class="st28"/><rect id="XMLID_370_" width=".7" height=".4" x="79.3" y="197" class="st28"/><rect id="XMLID_369_" width=".7" height=".4" x="79.3" y="195.5" class="st28"/><rect id="XMLID_368_" width=".7" height=".4" x="79.3" y="193.9" class="st28"/><rect id="XMLID_367_" width=".7" height=".4" x="79.3" y="192.4" class="st28"/><rect id="XMLID_366_" width="1.5" height=".4" x="79.2" y="190.8" class="st28"/><rect id="XMLID_365_" width=".7" height=".4" x="79.3" y="189.3" class="st28"/><rect id="XMLID_364_" width=".7" height=".4" x="79.3" y="187.7" class="st28"/><rect id="XMLID_363_" width=".7" height=".4" x="79.3" y="186.2" class="st28"/><rect id="XMLID_362_" width=".7" height=".4" x="79.3" y="184.6" class="st28"/><rect id="XMLID_361_" width="1.5" height=".4" x="79.2" y="183.1" class="st28"/><rect id="XMLID_360_" width=".7" height=".4" x="79.3" y="181.5" class="st28"/></g><path id="XMLID_358_" d="M84.2,180v6.9l0,0h-0.6v2.7v0.3v4.6h0.6v20.4c0.6,0,1-0.5,1-1.1v-32.7 C85.2,180.5,84.8,180.1,84.2,180z" class="st24"/><g id="XMLID_349_"><rect id="XMLID_357_" width="2.6" height="20.7" x="85.3" y="194.2" class="st29"/><rect id="XMLID_356_" width="1.3" height="20.7" x="86.6" y="194.2" class="st30"/><rect id="XMLID_355_" width="3.5" height="4.9" x="84.7" y="189.6" class="st29"/><rect id="XMLID_354_" width="3.5" height=".3" x="84.7" y="189.6" class="st6"/><rect id="XMLID_353_" width="3.5" height="2.7" x="84.7" y="186.9" class="st29"/><polygon id="XMLID_352_" points="88.1 181.3 85.3 178.9 85.3 186.9 88.1 186.9" class="st21"/><polygon id="XMLID_351_" points="85.3 179.8 85.3 186.9 88.1 186.9 88.1 182.2" class="st8"/><polygon id="XMLID_350_" points="86.7 186.9 88.1 186.9 88.1 182.2 86.7 181" class="st31"/></g><g id="XMLID_342_" class="st32"><path id="XMLID_348_" d="M79.3,214.9h1.1h0.8h1.3h1.6h0.1l0,0c0.3,0,0.5-0.1,0.7-0.3c0,0,0,0,0-0.1 c0.1-0.1,0.1-0.2,0.2-0.3s0.1-0.3,0.1-0.4v-9.1H72.4v10.2h4.4L79.3,214.9L79.3,214.9z" class="st24"/><path id="XMLID_347_" d="M88.5,213.6c0,0.7,0.6,1.3,1.3,1.3h2.4c0.7,0,1.3-0.6,1.3-1.3v-1.3v-1.2v-6.5h-4.9v6.5v1.2 v1.3H88.5z" class="st24"/><polygon id="XMLID_346_" points="87.9 214.9 87.9 204.7 85.3 204.7 85.3 214.9 86.6 214.9" class="st24"/><path id="XMLID_343_" d="M96.6,204.7v8c0,0.2,0,0.3,0.1,0.5c0,0.1,0,0.1,0.1,0.2c0,0.1,0,0.2,0.1,0.2 c0,0.1,0.1,0.2,0.1,0.2l0.1,0.1c0.1,0.1,0.1,0.2,0.2,0.3c0,0,0,0,0.1,0.1s0.2,0.2,0.3,0.2l0,0c0.4,0.3,0.9,0.4,1.5,0.4 c1.2-0.1,2-1.2,2-2.4v-7.8H96.6z M98.9,213.3c-0.4,0-0.8-0.4-0.8-0.8s0.4-0.8,0.8-0.8s0.8,0.4,0.8,0.8S99.4,213.3,98.9,213.3z" class="st24"/></g><g id="XMLID_335_"><path id="XMLID_341_" d="M106.1,227.2H71.9v-21.4h36.3v19.3C108.2,226.2,107.3,227.2,106.1,227.2z" class="st16"/><path id="XMLID_340_" d="M70.3,227.2h1.6v-21.4h-3.7v19.3C68.2,226.2,69.1,227.2,70.3,227.2z" class="st33"/><polygon id="XMLID_339_" points="68.2 210.3 70.6 210.3 71.9 205.8 68.2 206.7" class="st17"/><path id="XMLID_338_" d="M67.6,208.5h2.6c0.2,0,0.4-0.1,0.4-0.3l1.2-2.4h-3.7l-1,2C67,208.1,67.3,208.5,67.6,208.5z" class="st16"/><polygon id="XMLID_337_" points="108.2 210.3 108.2 206.7 71.9 205.8 73.9 210.3" class="st17"/><path id="XMLID_336_" d="M109.2,208.5H74.1c-0.2,0-0.3-0.1-0.4-0.2l-1.8-2.5h36.3l1.4,1.9 C109.9,208,109.7,208.5,109.2,208.5z" class="st16"/></g></g><path d="M351.1,150.4h-92.2c-1.2,0-2.1,1-2.1,2.2v2.2v5.2v67.6h93.7h2.7V160v-5.2V153v-0.3 C353.2,151.4,352.3,150.4,351.1,150.4z" class="st34"/><g><path id="XMLID_333_" d="M360.3,227.6H260v-72.7c0-2.4,2-4.4,4.4-4.4h91.4c2.4,0,4.4,2,4.4,4.4v72.7H360.3z" class="st35"/><path id="XMLID_332_" d="M360.3,159.8v-7.4c0-1.2-1-2.2-2.2-2.2h-95.8c-1.2,0-2.2,1-2.2,2.2v7.4H360.3z" class="st5"/><path id="XMLID_331_" d="M267.5,155.3c0,0.7-0.6,1.3-1.3,1.3c-0.7,0-1.3-0.6-1.3-1.3c0-0.7,0.6-1.3,1.3-1.3 C267,154,267.5,154.6,267.5,155.3z" class="st6"/><path id="XMLID_330_" d="M271.8,155.3c0,0.7-0.6,1.3-1.3,1.3c-0.7,0-1.3-0.6-1.3-1.3c0-0.7,0.6-1.3,1.3-1.3 C271.2,154,271.8,154.6,271.8,155.3z" class="st6"/><path id="XMLID_329_" d="M276.1,155.3c0,0.7-0.6,1.3-1.3,1.3c-0.7,0-1.3-0.6-1.3-1.3c0-0.7,0.6-1.3,1.3-1.3 S276.1,154.6,276.1,155.3z" class="st6"/><path id="XMLID_328_" d="M358.1,150.5h-2.8c1.2,0,2.2,1,2.2,2.2v74.9h2.8v-74.9C360.3,151.5,359.3,150.5,358.1,150.5 z" class="st36"/><path d="M270,169.4h-1.6c-1,0-1.8-0.8-1.8-1.8l0,0c0-1,0.8-1.8,1.8-1.8h1.6c1,0,1.8,0.8,1.8,1.8l0,0 C271.8,168.6,271,169.4,270,169.4z" class="st11"/><path d="M270,178.5h-1.6c-1,0-1.8-0.8-1.8-1.8l0,0c0-1,0.8-1.8,1.8-1.8h1.6c1,0,1.8,0.8,1.8,1.8l0,0 C271.8,177.7,271,178.5,270,178.5z" class="st11"/><path d="M270,187.5h-1.6c-1,0-1.8-0.8-1.8-1.8l0,0c0-1,0.8-1.8,1.8-1.8h1.6c1,0,1.8,0.8,1.8,1.8l0,0 C271.8,186.7,271,187.5,270,187.5z" class="st11"/><path d="M270,196.5h-1.6c-1,0-1.8-0.8-1.8-1.8l0,0c0-1,0.8-1.8,1.8-1.8h1.6c1,0,1.8,0.8,1.8,1.8l0,0 C271.8,195.7,271,196.5,270,196.5z" class="st11"/><path d="M270,205.6h-1.6c-1,0-1.8-0.8-1.8-1.8l0,0c0-1,0.8-1.8,1.8-1.8h1.6c1,0,1.8,0.8,1.8,1.8l0,0 C271.8,204.8,271,205.6,270,205.6z" class="st11"/><path d="M270,214.6h-1.6c-1,0-1.8-0.8-1.8-1.8l0,0c0-1,0.8-1.8,1.8-1.8h1.6c1,0,1.8,0.8,1.8,1.8l0,0 C271.8,213.8,271,214.6,270,214.6z" class="st11"/><path d="M270,223.7h-1.6c-1,0-1.8-0.8-1.8-1.8l0,0c0-1,0.8-1.8,1.8-1.8h1.6c1,0,1.8,0.8,1.8,1.8l0,0 C271.8,222.9,271,223.7,270,223.7z" class="st11"/><path d="M348.3,169.4h-1.6c-1,0-1.8-0.8-1.8-1.8l0,0c0-1,0.8-1.8,1.8-1.8h1.6c1,0,1.8,0.8,1.8,1.8l0,0 C350.1,168.6,349.3,169.4,348.3,169.4z" class="st11"/><path d="M348.3,178.5h-1.6c-1,0-1.8-0.8-1.8-1.8l0,0c0-1,0.8-1.8,1.8-1.8h1.6c1,0,1.8,0.8,1.8,1.8l0,0 C350.1,177.7,349.3,178.5,348.3,178.5z" class="st23"/><path d="M348.3,187.5h-1.6c-1,0-1.8-0.8-1.8-1.8l0,0c0-1,0.8-1.8,1.8-1.8h1.6c1,0,1.8,0.8,1.8,1.8l0,0 C350.1,186.7,349.3,187.5,348.3,187.5z" class="st37"/><path d="M348.3,196.5h-1.6c-1,0-1.8-0.8-1.8-1.8l0,0c0-1,0.8-1.8,1.8-1.8h1.6c1,0,1.8,0.8,1.8,1.8l0,0 C350.1,195.7,349.3,196.5,348.3,196.5z" class="st23"/><path d="M348.3,205.6h-1.6c-1,0-1.8-0.8-1.8-1.8l0,0c0-1,0.8-1.8,1.8-1.8h1.6c1,0,1.8,0.8,1.8,1.8l0,0 C350.1,204.8,349.3,205.6,348.3,205.6z" class="st37"/><path d="M348.3,214.6h-1.6c-1,0-1.8-0.8-1.8-1.8l0,0c0-1,0.8-1.8,1.8-1.8h1.6c1,0,1.8,0.8,1.8,1.8l0,0 C350.1,213.8,349.3,214.6,348.3,214.6z" class="st23"/><path d="M348.3,223.7h-1.6c-1,0-1.8-0.8-1.8-1.8l0,0c0-1,0.8-1.8,1.8-1.8h1.6c1,0,1.8,0.8,1.8,1.8l0,0 C350.1,222.9,349.3,223.7,348.3,223.7z" class="st11"/><path d="M299.8,169.4h-23.1c-1,0-1.8-0.8-1.8-1.8l0,0c0-1,0.8-1.8,1.8-1.8h23.1c1,0,1.8,0.8,1.8,1.8l0,0 C301.6,168.6,300.8,169.4,299.8,169.4z" class="st11"/><path d="M305.5,169.4h4.7c1,0,1.8-0.8,1.8-1.8l0,0c0-1-0.8-1.8-1.8-1.8h-4.7c-1,0-1.8,0.8-1.8,1.8l0,0 C303.7,168.6,304.5,169.4,305.5,169.4z" class="st16"/><path d="M287.2,178.5h-10.4c-1,0-1.8-0.8-1.8-1.8l0,0c0-1,0.8-1.8,1.8-1.8h10.4c1,0,1.8,0.8,1.8,1.8l0,0 C289,177.7,288.2,178.5,287.2,178.5z" class="st16"/><path d="M296.5,178.5h31.2c1,0,1.8-0.8,1.8-1.8l0,0c0-1-0.8-1.8-1.8-1.8h-31.2c-1,0-1.8,0.8-1.8,1.8l0,0 C294.7,177.7,295.5,178.5,296.5,178.5z" class="st5"/><path d="M320.7,187.5h-43.9c-1,0-1.8-0.8-1.8-1.8l0,0c0-1,0.8-1.8,1.8-1.8h43.9c1,0,1.8,0.8,1.8,1.8l0,0 C322.5,186.7,321.7,187.5,320.7,187.5z" class="st11"/><path d="M330.4,196.5h-53.6c-1,0-1.8-0.8-1.8-1.8l0,0c0-1,0.8-1.8,1.8-1.8h53.6c1,0,1.8,0.8,1.8,1.8l0,0 C332.2,195.7,331.4,196.5,330.4,196.5z" class="st11"/><path d="M320.7,205.6h-16.2c-1,0-1.8-0.8-1.8-1.8l0,0c0-1,0.8-1.8,1.8-1.8h16.2c1,0,1.8,0.8,1.8,1.8l0,0 C322.5,204.8,321.7,205.6,320.7,205.6z" class="st5"/><path d="M297.9,205.6h-21.1c-1,0-1.8-0.8-1.8-1.8l0,0c0-1,0.8-1.8,1.8-1.8h21.1c1,0,1.8,0.8,1.8,1.8l0,0 C299.7,204.8,298.9,205.6,297.9,205.6z" class="st11"/><path d="M310.2,214.6h-33.4c-1,0-1.8-0.8-1.8-1.8l0,0c0-1,0.8-1.8,1.8-1.8h33.4c1,0,1.8,0.8,1.8,1.8l0,0 C312,213.8,311.2,214.6,310.2,214.6z" class="st11"/><path d="M316.2,214.6h10.7c1,0,1.8-0.8,1.8-1.8l0,0c0-1-0.8-1.8-1.8-1.8h-10.7c-1,0-1.8,0.8-1.8,1.8l0,0 C314.4,213.8,315.2,214.6,316.2,214.6z" class="st16"/><path d="M320.7,223.7h-43.9c-1,0-1.8-0.8-1.8-1.8l0,0c0-1,0.8-1.8,1.8-1.8h43.9c1,0,1.8,0.8,1.8,1.8l0,0 C322.5,222.9,321.7,223.7,320.7,223.7z" class="st11"/></g><g id="XMLID_320_"><polygon id="XMLID_327_" points="291.1 215.3 284.7 214.8 289.8 208.9" class="st16"/><polygon id="XMLID_326_" points="286 221.1 279.6 220.6 284.7 214.8" class="st16"/><polygon id="XMLID_325_" points="298.5 226.9 280.8 226.9 296.2 209.4" class="st16"/><polygon id="XMLID_324_" points="298.5 226.9 286 221.1 291.1 215.2" class="st26"/><polygon id="XMLID_323_" points="279.6 220.6 280.8 226.9 285.9 221.1" class="st26"/><polygon id="XMLID_322_" points="284.7 214.8 286 221.1 291.1 215.3" class="st26"/><polygon id="XMLID_321_" points="289.8 208.9 291.1 215.2 296.2 209.4" class="st26"/></g><g id="XMLID_121_"><g id="XMLID_307_"><path id="XMLID_319_" d="M270.2,225.5c-3.7,3.1-9.2,2.6-12.2-1.1c-3.1-3.7-2.6-9.2,1.1-12.2 c3.7-3.1,9.2-2.6,12.2,1.1C274.4,217,273.9,222.5,270.2,225.5z" class="st37"/><g><path d="M267,217.2l-2.8,5.9c0,0.1-0.1,0.1-0.2,0.1c0,0,0,0-0.1,0s-0.2-0.1-0.2-0.3l1-4.1l-2.1,0.5c0,0,0,0-0.1,0 s-0.1,0-0.2-0.1c-0.1-0.1-0.1-0.1-0.1-0.2l1-4.2c0-0.1,0.1-0.2,0.2-0.2h1.7c0.1,0,0.2,0.1,0.2,0.2v0.1l-0.9,2.4l2-0.5 c0,0,0,0,0.1,0s0.1,0,0.2,0.1C267,217,267,217.1,267,217.2z" class="st6"/></g></g><path id="XMLID_306_" d="M263.5,219.1c0-2.9-1.3-5.4-3.3-7.2c-0.4,0.2-0.8,0.5-1.2,0.8c-2,1.7-3,4-3.1,6.4 c0.1,1.9,0.7,3.7,2,5.3c0.6,0.8,1.4,1.4,2.2,1.9C262.2,224.6,263.5,222,263.5,219.1z" class="st38"/><g id="XMLID_150_"><path id="XMLID_305_" d="M262,218c0,5.3-4.3,9.5-9.5,9.5c-5.3,0-9.5-4.3-9.5-9.5c0-5.3,4.3-9.5,9.5-9.5 C257.7,208.5,262,212.8,262,218z" class="st5"/><g><path d="M255,221.3c0,0.1,0,0.2-0.1,0.2c0,0-0.5,0.2-1.1,0.2c-1.6,0-3-1-3.4-2.5h-0.5c-0.1,0-0.2-0.1-0.2-0.2v-0.6 c0-0.1,0.1-0.2,0.2-0.2h0.3c0-0.2,0-0.4,0-0.6h-0.4c-0.1,0-0.2-0.1-0.2-0.2v-0.6c0-0.1,0.1-0.2,0.2-0.2h0.5 c0.5-1.5,1.8-2.4,3.4-2.4c0.5,0,1,0.1,1,0.1s0.1,0,0.1,0.1v0.1l-0.2,0.8c0,0.1-0.1,0.1-0.2,0.1c0,0-0.4-0.1-0.7-0.1 c-0.9,0-1.6,0.5-2,1.3h2.5c0.1,0,0.1,0,0.1,0.1v0.1l-0.1,0.6c0,0.1-0.1,0.1-0.2,0.1h-2.6c0,0.2,0,0.3,0,0.6h2.4 c0.1,0,0.1,0,0.1,0.1v0.1l-0.1,0.6c0,0.1-0.1,0.1-0.2,0.1h-2c0.3,0.8,1.1,1.3,2,1.3c0.5,0,0.8-0.1,0.8-0.1h0.1l0.1,0.1 L255,221.3z" class="st6"/></g></g><path id="XMLID_149_" d="M248.8,210.3c-3.3,1.4-5.7,4.6-5.9,8.4c0.2,3.2,2.1,6,4.7,7.6c4-2.9,5.4-8.3,3.3-12.9 C250.4,212.2,249.7,211.2,248.8,210.3z" class="st38"/><g id="XMLID_134_"><ellipse id="XMLID_148_" cx="239.8" cy="217.1" class="st16" rx="10.5" ry="10.5"/><g><path d="M245.9,213.2v6.9c0,0.5-0.4,0.9-0.9,0.9h-9.1c-0.5,0-0.9-0.4-0.9-0.9v-6.9c0-0.5,0.4-0.9,0.9-0.9h9.1 C245.4,212.3,245.9,212.7,245.9,213.2z M235.6,213.2v1.3h9.5v-1.3c0-0.1-0.1-0.2-0.2-0.2h-9.1 C235.7,213,235.6,213.1,235.6,213.2z M245.1,220.2v-3.5h-9.5v3.5c0,0.1,0.1,0.2,0.2,0.2h9.1C245,220.4,245.1,220.3,245.1,220.2z M236.4,218.9h1.5v0.7h-1.5V218.9z M238.6,218.9h2.2v0.7h-2.2V218.9z" class="st6"/></g></g><path id="XMLID_133_" d="M230.3,221.5c0.7,1.5,1.7,2.7,2.8,3.6c0.6-0.8,1.2-1.8,1.5-2.8c1.4-4.1,0.2-8.5-2.9-11.2 c-1.5,1.8-2.4,4.1-2.4,6.5C229.4,218.9,229.7,220.2,230.3,221.5z" class="st38"/><g id="XMLID_122_"><path id="XMLID_132_" d="M232.6,220.6c-1.9,5.4-7.9,8.3-13.3,6.4c-5.4-1.9-8.3-7.9-6.4-13.3 c1.9-5.4,7.8-8.3,13.3-6.4C231.7,209.3,234.5,215.2,232.6,220.6z" class="st3"/><g><path d="M223.1,220.8v0.9c0,0.1-0.1,0.2-0.2,0.2h-0.7c-0.1,0-0.2-0.1-0.2-0.2v-0.9c-1.2-0.2-1.9-0.9-2-1 s-0.1-0.2,0-0.2l0.6-0.7l0.1-0.1h0.1c0,0,0.8,0.7,1.7,0.7c0.5,0,1.1-0.3,1.1-0.9c0-0.5-0.6-0.8-1.4-1.1c-1-0.4-2.2-0.9-2.2-2.2 c0-1,0.8-1.8,1.9-2v-1c0-0.1,0.1-0.2,0.2-0.2h0.7c0.1,0,0.2,0.1,0.2,0.2v0.9c1.1,0.1,1.7,0.7,1.7,0.7c0.1,0.1,0.1,0.1,0,0.2 l-0.4,0.8l-0.1,0.1c-0.1,0-0.1,0-0.1,0s-0.7-0.6-1.5-0.6c-0.7,0-1.1,0.3-1.1,0.8c0,0.6,0.7,0.8,1.4,1.1c1,0.4,2.1,0.8,2.1,2.1 S224.2,220.6,223.1,220.8z" class="st6"/></g></g></g><g id="XMLID_33_"><g id="XMLID_117_"><path id="XMLID_120_" d="M204.4,218.1c0,5.1-4.1,9.3-9.3,9.3c-5.1,0-9.3-4.1-9.3-9.3s4.1-9.3,9.3-9.3 C200.2,208.8,204.4,213,204.4,218.1z" class="st5"/><g id="XMLID_118_"><polygon id="XMLID_119_" points="194.3 221 191.3 218 192.3 217 194.3 218.9 197.9 215.2 199 216.3" class="st6"/></g></g><path id="XMLID_116_" d="M185.9,218.1c0,2.9,1.4,5.6,3.5,7.2c1-0.8,1.9-1.9,2.5-3.1c1.9-4,0.8-8.6-2.4-11.4 C187.2,212.6,185.9,215.2,185.9,218.1z" class="st38"/><g id="XMLID_107_"><path id="XMLID_115_" d="M190.1,222.2c-2.3,4.7-7.9,6.7-12.6,4.4c-4.7-2.3-6.7-7.9-4.4-12.6 c2.3-4.7,7.9-6.7,12.6-4.4C190.4,211.9,192.4,217.5,190.1,222.2z" class="st16"/><g id="XMLID_108_"><g><path id="XMLID_110_" d="M181.1,216.9l1-2.1l1.7,0.8l-1,2.1l2.1,1l-0.7,1.5l-2.1-1l-1,2.1l-1.7-0.8l1-2.1l-2-1 l0.7-1.5L181.1,216.9z" class="st6"/></g></g></g><path id="XMLID_105_" d="M176.9,209.9c-1.6,0.9-3,2.3-3.9,4.1c-2.1,4.4-0.5,9.7,3.6,12.2c2.8-1.7,4.7-4.7,4.7-8.2 C181.3,214.6,179.5,211.6,176.9,209.9z" class="st38"/><g id="XMLID_34_"><circle id="XMLID_103_" cx="170.3" cy="217.9" r="9.6" class="st29"/><g><path d="M173.8,218.1c0.2,0.3,0.3,0.7,0.3,1.2c-0.1,0.6-0.3,1.1-0.8,1.3c-0.4,0.2-1,0.4-1.7,0.4v1.2h-0.9V221H170 v1.2h-0.9V221h-1.7l0.2-1h0.2c0.3,0,0.5,0,0.5,0c0.1,0,0.2-0.1,0.2-0.3v-3.8c0-0.2-0.1-0.3-0.3-0.3c-0.1,0-0.3,0-0.7,0h-0.1 v-0.9h0.5c0.6,0,1,0,1.2,0v-1.4h0.9v1.4h0.7v-1.3h0.9v1.4c0.6,0.1,1,0.2,1.4,0.4s0.6,0.6,0.6,1c0.1,0.7-0.2,1.1-0.7,1.4 C173.2,217.6,173.6,217.8,173.8,218.1z M170,217.3h0.1c0.5,0,0.9,0,1.1-0.1c0.5-0.1,0.7-0.4,0.7-0.7c0-0.4-0.2-0.6-0.7-0.8 c-0.3-0.1-0.6-0.1-1.1-0.1c-0.1,0-0.1,0-0.2,0L170,217.3L170,217.3z M170.2,220c0.6,0,1,0,1.3-0.1c0.5-0.1,0.8-0.4,0.8-0.8 s-0.3-0.7-0.8-0.8c-0.3-0.1-0.7-0.1-1.3-0.1H170v1.8L170.2,220L170.2,220z" class="st6"/></g></g></g><g id="XMLID_29_"><path id="XMLID_30_" d="M146.8,219.2h2.3c0.5,0,0.9-0.4,0.9-0.9v-3c0-0.5-0.4-0.9-0.9-0.9h-1.8 c-0.3,0-0.6-0.2-0.7-0.5c-0.1-0.2-0.1-0.3-0.2-0.5c-0.1-0.3-0.1-0.6,0.1-0.8l1.3-1.3c0.3-0.3,0.3-0.9,0-1.2l-2.1-2.1 c-0.3-0.3-0.9-0.3-1.2,0l-1.3,1.3c-0.2,0.2-0.5,0.3-0.8,0.1c-0.2-0.1-0.4-0.2-0.6-0.2c-0.3-0.1-0.4-0.4-0.4-0.7v-1.8 c0-0.5-0.4-0.9-0.9-0.9h-3c-0.5,0-0.9,0.4-0.9,0.9v1.8c0,0.3-0.2,0.6-0.5,0.7c-0.2,0.1-0.4,0.1-0.5,0.2c-0.3,0.1-0.6,0.1-0.8-0.1 l-1.3-1.3c-0.3-0.3-0.9-0.3-1.2,0l-2.1,2.1c-0.3,0.3-0.3,0.9,0,1.2l1.3,1.3c0.2,0.2,0.3,0.5,0.2,0.8c-0.1,0.2-0.2,0.4-0.2,0.6 c-0.1,0.3-0.4,0.4-0.7,0.4H129c-0.5,0-0.9,0.4-0.8,0.9v3c0,0.5,0.4,0.9,0.9,0.8h1.8c0.3,0,0.6,0.2,0.7,0.5 c0.1,0.2,0.1,0.3,0.2,0.5c0.1,0.3,0.1,0.6-0.1,0.8l-1.3,1.3c-0.3,0.3-0.3,0.9,0,1.2l2.1,2.1c0.3,0.3,0.9,0.3,1.2,0l1.3-1.3 c0.2-0.2,0.5-0.3,0.8-0.1c0.2,0.1,0.4,0.2,0.6,0.2c0.3,0.1,0.4,0.4,0.4,0.7v1.8c0,0.5,0.4,0.9,0.9,0.8h3c0.5,0,0.9-0.4,0.8-0.9 v-1.8c0-0.3,0.2-0.6,0.5-0.7c0.2-0.1,0.3-0.1,0.5-0.2c0.3-0.1,0.6-0.1,0.8,0.1l1.3,1.3c0.3,0.3,0.9,0.3,1.2,0l2.1-2.1 c0.3-0.3,0.3-0.9,0-1.2l-1.3-1.3c-0.2-0.2-0.3-0.5-0.1-0.8C146.6,219.8,146.8,219.2,146.8,219.2z M135,216.1 c0.5-2.6,3.2-4.1,5.6-3.2c1.9,0.7,3,2.7,2.6,4.7c-0.5,2.6-3.2,4.1-5.6,3.2C135.8,220.1,134.7,218.1,135,216.1z" class="st16"/></g><g id="XMLID_857_"><g id="XMLID_868_"><path id="XMLID_901_" d="M60.4,227.2H35.5c-1.2,0-2.2-1-2.2-2.2v-20.6h27.1c0.4,0,0.8,0.3,0.8,0.8v21.3 C61.1,226.8,60.8,227.2,60.4,227.2z" class="st39"/><path id="XMLID_900_" d="M36.2,223.3c-1,0-3,0.2-3,2.3v-22.4c0-1.3,1-2.3,2.3-2.3h0.7V223.3z" class="st40"/></g><path id="XMLID_834_" d="M52.3,217.8h1.5c0.3,0,0.5-0.2,0.5-0.5v-1.9c0-0.3-0.2-0.5-0.5-0.5h-1.2 c-0.2,0-0.4-0.1-0.4-0.3c0-0.1-0.1-0.2-0.1-0.3c-0.1-0.2-0.1-0.4,0.1-0.5L53,213c0.2-0.2,0.2-0.6,0-0.8l-1.3-1.3 c-0.2-0.2-0.6-0.2-0.8,0l-0.8,0.8c-0.1,0.1-0.3,0.2-0.5,0.1c-0.1-0.1-0.2-0.1-0.4-0.1c-0.2-0.1-0.3-0.2-0.3-0.4v-1.2 c0-0.3-0.2-0.5-0.5-0.5h-1.9c-0.3,0-0.5,0.2-0.5,0.5v1.2c0,0.2-0.1,0.4-0.3,0.4c-0.1,0-0.2,0.1-0.3,0.1c-0.2,0.1-0.4,0.1-0.5-0.1 l-0.9-0.9c-0.2-0.2-0.6-0.2-0.8,0l-1.3,1.3c-0.2,0.2-0.2,0.6,0,0.8l0.8,0.8c0.1,0.1,0.2,0.3,0.1,0.5c-0.1,0.1-0.1,0.2-0.1,0.4 c-0.1,0.2-0.2,0.3-0.4,0.3h-1.2c-0.3,0-0.5,0.2-0.5,0.5v1.9c0,0.3,0.2,0.5,0.5,0.5h1.2c0.2,0,0.4,0.1,0.4,0.3 c0,0.1,0.1,0.2,0.1,0.3c0.1,0.2,0.1,0.4-0.1,0.5l-0.8,0.8c-0.2,0.2-0.2,0.6,0,0.8l1.3,1.3c0.2,0.2,0.6,0.2,0.8,0l0.8-0.8 c0.1-0.1,0.3-0.2,0.5-0.1c0.1,0.1,0.2,0.1,0.4,0.1c0.2,0.1,0.3,0.2,0.3,0.4v1.2c0,0.3,0.2,0.5,0.5,0.5h1.9c0.3,0,0.5-0.2,0.5-0.5 v-1.2c0-0.2,0.1-0.4,0.3-0.4c0.1,0,0.2-0.1,0.3-0.1c0.2-0.1,0.4-0.1,0.5,0.1l0.8,0.8c0.2,0.2,0.6,0.2,0.8,0l1.3-1.3 c0.2-0.2,0.2-0.6,0-0.8l-0.8-0.8c-0.1-0.1-0.2-0.3-0.1-0.5C52.2,218.2,52.3,217.8,52.3,217.8z M44.8,215.8c0.3-1.7,2-2.6,3.6-2 c1.2,0.5,1.9,1.7,1.7,3c-0.3,1.7-2,2.6-3.6,2C45.3,218.4,44.6,217.1,44.8,215.8z" class="st5"/><path id="XMLID_858_" d="M61.1,226.6v-21.7c0-0.3-0.3-0.6-0.6-0.6h-1.8v19.1v0.6v2.5c0,0.3,0.3,0.6,0.6,0.6h1.2 C60.9,227.2,61.1,226.9,61.1,226.6z" class="st24"/><g id="XMLID_838_"><rect id="XMLID_856_" width="2.5" height="21.6" x="59.5" y="202.5" class="st16"/><path id="XMLID_855_" d="M62,224h-2.5v2.3c0,0.5,0.4,0.8,0.8,0.8h0.9c0.5,0,0.8-0.4,0.8-0.8V224z" class="st40"/><rect id="XMLID_852_" width="1.3" height="21.6" x="59.5" y="202.5" class="st41"/><path id="XMLID_851_" d="M60.6,199.5l-1.2,2.9H62l-1.2-2.9C60.8,199.4,60.7,199.4,60.6,199.5z" class="st27"/><path id="XMLID_850_" d="M60.7,199.4l-0.3,0.8h0.7L60.7,199.4C60.7,199.3,60.7,199.3,60.7,199.4z" class="st25"/><rect id="XMLID_854_" width="2.5" height=".6" x="59.5" y="223.4" class="st25"/></g></g></g><g id="Layer_11"><path d="M360.3,217.1l-0.7,0.3l-0.4-0.8l1.1-0.3v-1.9l-9.4-22.7l-1.3-14.2c0,0,1.3-1.7,2.3-4.6 c0.6-1.8,0.4-4.3,0.2-5.9h0.6v-2.4h-0.3c1.2-2.3,3.8-8.9,5.9-14.5c-0.1,0-0.1,0-0.2,0h-16.7l-0.7,0.7v-0.7H309v9 c0,1.2,0.9,2.1,2.1,2.1h0.8h8c-0.3,0.1-0.6,0.3-0.8,0.5l5.3,0.6h2.7l2.3-1.1h8.8c-0.5,1.5-1,2.7-1.3,3.4h-1v2.4h0.4l-1,5.1 l-0.1,0.6l-5.8,18.9l-1.9,26.5h1.4v1.1h-1.3l-2.1,2.4H321c-2.7,0-5.3,1.5-6.5,4h-0.7v1.5h19.5v-1.5h-0.7v-6.4h-1v-1.1h1.5l4.4-28.1 v-0.1l0,0l2.6-3.9l3.6,10.3l11.8,21.2l0.9-0.3l0.6,1.1l-0.8,0.4l-1,3l-5.1,0.1c-2.5,1-3.1,1.1-3.4,3.6h-0.4v1.5h10.6l0,0l3.4-1.4 V217.1z" class="st42"/><g><g id="XMLID_49_"><g id="XMLID_64_"><path id="XMLID_67_" d="M339,142.1l-22.7,11.3c-0.4,0.2-0.8,0-1-0.3l-6.9-13.9c-0.2-0.4,0-0.8,0.3-1l22.7-11.3 c0.4-0.2,0.8,0,1,0.3l6.9,13.9C339.5,141.5,339.3,141.9,339,142.1z" class="st16"/><path id="XMLID_66_" d="M339.3,141.5l-15.5-2.6c-0.4-0.1-0.8,0.1-0.9,0.5l-7.2,13.9c0.3,0.1,0.6,0.2,0.8,0 l22.3-11.1C339.1,142.1,339.2,141.8,339.3,141.5z" class="st26"/><path id="XMLID_65_" d="M308.4,138.7l15.5,2.6c0.4,0.1,0.8-0.1,0.9-0.5l7.2-13.9c-0.3-0.1-0.6-0.2-0.8,0L308.9,138 C308.6,138.2,308.4,138.5,308.4,138.7z" class="st26"/></g><path id="XMLID_58_" d="M313.1,136c2.4,2.7,6.4,3.5,9.8,1.9c3.4-1.7,5.1-5.4,4.4-8.9L313.1,136z" class="st38"/><g id="XMLID_52_"><path id="XMLID_57_" d="M326.3,126c2,4.1,0.4,9.1-3.7,11.1s-9.1,0.4-11.1-3.7c-2-4.1-0.4-9.1,3.7-11.1 S324.3,121.9,326.3,126z" class="st5"/><path id="XMLID_56_" d="M323.4,127.5c1.2,2.5,0.2,5.5-2.3,6.8c-2.5,1.2-5.5,0.2-6.8-2.3c-1.2-2.5-0.2-5.5,2.3-6.8 C319.1,124,322.2,125,323.4,127.5z" class="st43"/><g id="XMLID_53_"><polygon id="XMLID_55_" points="321.4 131.9 320.2 132.5 317.8 127.7 316.7 128.3 316.1 127.1 318.4 125.9" class="st6"/></g></g></g><g id="XMLID_43_"><path id="XMLID_48_" d="M338.5,150.7l-17.9-10.8c-0.3-0.2-0.4-0.6-0.2-1l7.3-12.1c0.2-0.3,0.6-0.4,1-0.2l17.9,10.8 c0.3,0.2,0.4,0.6,0.2,1l-7.3,12.1C339.3,150.8,338.8,150.9,338.5,150.7z" class="st6"/><path id="XMLID_47_" d="M336.4,143.2l-10.2-6.1c1.7-2.8,5.3-3.7,8.1-2C337.2,136.8,338.1,140.4,336.4,143.2z" class="st16"/><polygon id="XMLID_46_" points="326.4 140.8 335.3 138.7 337.2 147.4" class="st40"/><polygon id="XMLID_45_" points="321.8 138.1 330.8 135.9 332.7 144.6" class="st44"/><path id="XMLID_44_" d="M338.9,137.4l2,1.2c0.2,0.1,0.3,0.4,0.1,0.6l0,0c-0.1,0.2-0.4,0.3-0.6,0.1l-0.1-0.1 c-0.2-0.1-0.4-0.1-0.5,0.1l0,0c-0.1,0.2-0.1,0.4,0.1,0.5l2.1,1.3c0.2,0.1,0.2,0.3,0.1,0.5l0,0c-0.1,0.2-0.3,0.2-0.5,0.1l-6.6-4 c-0.2-0.1-0.2-0.3-0.1-0.5l0,0c0.1-0.2,0.3-0.2,0.5-0.1l0.4,0.3c0.2,0.1,0.4,0.1,0.5-0.1l0,0c0.1-0.2,0.1-0.4-0.1-0.5l-1.9-1.1 c-0.2-0.1-0.3-0.4-0.1-0.6l0,0c0.1-0.2,0.4-0.3,0.6-0.1L338.9,137.4z" class="st44"/></g><g id="XMLID_35_"><g id="XMLID_36_"><path id="XMLID_42_" d="M340.5,161.2H314v-16.9h28.7v14.8C342.7,160.3,341.7,161.2,340.5,161.2z" class="st37"/><path id="XMLID_41_" d="M313.2,161.2h0.8v-16.9h-3v14.8C311,160.3,312,161.2,313.2,161.2z" class="st45"/><polygon id="XMLID_40_" points="311 147.9 312.9 147.9 314 144.3 311 145" class="st36"/><path id="XMLID_39_" d="M310.6,146.5h2.1c0.1,0,0.3-0.1,0.4-0.2l0.9-1.9h-3l-0.8,1.6 C310.1,146.2,310.3,146.5,310.6,146.5z" class="st37"/><polygon id="XMLID_38_" points="342.7 147.9 342.7 145 314 144.3 315.5 147.9" class="st36"/><path id="XMLID_37_" d="M343.5,146.5h-27.7c-0.1,0-0.2-0.1-0.3-0.2l-1.5-2h28.7l1.1,1.5 C344,146.1,343.8,146.5,343.5,146.5z" class="st37"/></g></g><rect width="2.8" height="3.1" x="330.8" y="217.3" class="st46"/><rect width="2.8" height="3.1" x="358.6" y="215.7" class="st46" transform="matrix(0.8973 -0.4414 0.4414 0.8973 -58.9277 181.2026)"/><polygon points="353.8 165.5 349.2 175.5 339.5 190.1 335.1 218.2 329.4 218.2 331.3 191.7 337.1 172.8 338.6 165.5" class="st14"/><g class="st32"><path d="M351,171.6l-13.2-2l-0.6,3.1l-0.7,2.2c1.5,3.8,3,9.2,3.1,15.1l9.6-14.5L351,171.6z" class="st29"/></g><rect width="5.8" height="6.8" x="353.6" y="128" class="st46"/><polygon points="359.4 131.7 353.6 129.6 353.6 128 359.4 128" class="st42"/><path d="M352.5,131.4l7.8,2v1.5c0,0,3.1,4.1,2.9,6.2s-8.2,23.6-9.4,24.4h-15.3c0,0,6.1-16,6.5-17.8 c0,0,1.9-8.6,5.2-11.3c0,0,1-1.7,2-2.2C352.2,134.3,353.1,133.2,352.5,131.4z" class="st47"/><path d="M353.4,149.9l-4.6-5.9l4.2-3.6c1.4-1.5,3.8-1.5,5.3-0.1l0,0c1.5,1.4,1.5,3.8,0.1,5.3L353.4,149.9z" class="st48"/><path d="M352.7,149.2l-4.5-5.9l4.9-3.8c1.5-1.2,3.7-0.9,4.9,0.7l0.3,0.3c1.2,1.5,0.9,3.7-0.7,4.9L352.7,149.2z" class="st47"/><path d="M343.3,152.9c-0.7,1.8-1.4,3.8-2.1,5.7l3.4-1.6l8.8-7.1l-3.4-4.5L343.3,152.9z" class="st29"/><path d="M329.1,162.3l14.4-6.8l8.8-7.1l-3.4-4.5l-7.2,8l-13,8.1l0.5,0.6l-2.6,0.1c-1.1,0-4.1-0.4-5.3,0.9l5.3,0.6 L329.1,162.3L329.1,162.3z" class="st46"/><path d="M353.8,165.5c0,0,0.9,4.5,0,7.4s-2.3,4.6-2.3,4.6l1.3,14.2l10.1,24.3l-5.4,1.6l-11.8-21.2l-8.5-24.3l1.3-6.6 H353.8z" class="st14"/><path d="M361.7,129.5h-8.4c-1.3,0-2.4-1.1-2.4-2.4v-2.7h-2.1c-0.9-7.1,2.1-9.2,2.1-9.2h10.8V129.5z" class="st49"/><g><path d="M364.9,116.4c-0.2-1.2-1-3.2-2.1-3.8c-0.6-0.3-1.3-0.3-1.9,0c0-0.8-0.5-1.8-1.3-1.8c-0.5,0-1.1,0.2-1.6,0.3 c-1.8,0.6-3.6,1.2-5.5,1.1c-2,0-3.7-0.8-5-2.2c0,1.1,0.2,2.2,0.5,3.3c0.1,0.4,0.3,0.8,0.5,1.1c0.3,0.5,0.8,0.8,1.4,1.2 c1.5,1,2.6,0.4,4.2,0.5c0.7,0,1.3,0.2,2,0.2c0.6,0,1.4-0.2,2,0.1c1.9,1-2.5,3.6-2.5,4.5c1-0.5,2-1.1,2.9-1.6 c-1,1.2-2.1,2.5-2.1,4.1c0.7-0.7,1.6-1.2,2.6-1.4c-0.3,0.7-0.6,1.3-1,2c-0.1,0.2-0.2,0.5,0,0.6c0.3,0.2,0.7-0.4,1-0.2 c-0.4,0.9-0.8,1.8-1.2,2.8c0.4-0.2,0.8-0.4,1-0.7c-0.3,1-0.2,2.1,0.2,3c0.7-0.1,1.3,0.5,2.1,0.6c0.7,0.1,1.1-0.4,1.6-0.6 c0.7-0.3,1.7-0.3,2.4-0.1c-0.3-0.5-0.6-1-0.7-1.6c-0.4-1.5,0.4-2.6,0.6-4c0.2-1.7,0.2-3.4,0.2-5.1 C365.1,117.9,365.1,117.1,364.9,116.4z" class="st50"/></g><rect width="16.8" height="2.4" x="337.9" y="164.7" class="st48"/><path d="M328.3,161.5l-1.7-1.7c-0.3-0.2-0.4-0.5-0.3-0.8l0,0c0.2-0.3,0.5-0.4,0.8-0.3l2.3,1.2 c0.3,0.2,0.4,0.5,0.3,0.8l0,0C329.5,161,328.6,161.6,328.3,161.5z" class="st46"/><path d="M334.6,219.3h-5.1l-2.1,2.4H323c-2.7,0-5.3,1.5-6.5,4l0,0h18v-6.4H334.6z" class="st19"/><path d="M333.6,222.5c0,0.9-0.7,1.6-1.6,1.6s-1.6-0.7-1.6-1.6c0-0.9,0.7-1.6,1.6-1.6S333.6,221.6,333.6,222.5z" class="st6"/><rect width="19.5" height="1.5" x="315.8" y="225.7" class="st16"/><path d="M362.9,216.9l-4.7,2l-1,3l-5.1,0.1c-2.5,1.1-3.2,1.1-3.4,3.8l0,0h9.4l7.2-3L362.9,216.9z" class="st19"/><path d="M363.2,220.2c0.3,0.8,0,1.7-0.9,2.1c-0.8,0.3-1.7,0-2.1-0.9c-0.3-0.8,0-1.7,0.9-2.1 C361.9,219,362.8,219.4,363.2,220.2z" class="st6"/><rect width="10.6" height="1.5" x="348.3" y="225.6" class="st16"/><rect width="7.9" height="1.5" x="358.3" y="224.1" class="st16" transform="matrix(0.9192 -0.3937 0.3937 0.9192 -59.2681 160.7693)"/></g></g><g id="Layer_8"><path d="M175.3,101.1c0-0.1-0.1-0.2-0.2-0.3c-0.1-0.1-0.2-0.1-0.4-0.1l0,0l0,0h-0.1h-0.1h-0.1c0-0.5,0-1-0.1-1.5h-0.1 c0-0.1,0-0.3,0-0.4c-5.5,0-10.9-0.1-16.4-0.1c0,0.1,0,0.2,0,0.3h-0.1c-0.1,1.3-0.2,2.5,0,3.8h0.1c0,0.1,0,0.2,0,0.3 c5.5,0,10.9,0.1,16.4,0.1l0,0c0-0.1,0-0.2,0-0.3c0.1,0,0.1,0,0.2,0c0.1-0.6,0.1-1.1,0.1-1.7h0.1h0.2l0,0l0,0c0,0,0,0,0,0.1v0.8v3.4 v0.8v0.2v0.1l0,0l0,0c0,0.1-0.1,0.1-0.1,0.2l0,0l0,0l0,0l0,0l-0.2,0.1l-0.4,0.2l-0.8,0.4l-3,1.4l-3,1.4l-0.4,0.2 c-0.1,0.1-0.2,0.1-0.3,0.2s-0.1,0.2-0.2,0.3c0,0.1-0.1,0.2-0.1,0.3l0,0l0,0v0.1v0.1v0.4v1.3h-0.8v0.3c0,0.1,0,0.1,0.1,0.1h0.7h-0.7 c-0.2,0-0.3,0.1-0.3,0.3l-0.1,1.2l0,0c-0.5,0.2-1.1,0.4-1.6,0.6s-1,0.4-1.3,0.9c-0.2,0.3-0.3,0.6-0.3,1c-0.1,0.7-0.1,1.4,0,2.2v0.6 l-0.3-0.1l-12.6,8.7c0,0-7.3-3.8-10.9-5.3c-2.4-1-3.9-0.6-4.6-0.3l-0.6-3.2c0.8,0.1,1.7-0.1,2.6-0.1c0.7,0,1.4,0,1.9-0.4 c0.7-0.5,1-1.3,1.2-2.1c0.2-0.5,0.3-1.1,0.5-1.6s0.3-1,0.3-1.6c0-0.5-0.2-1-0.6-1.3c0.2,0,0.5,0,0.7,0s0.4-0.2,0.3-0.4 c-0.2-1-0.5-2-0.7-3c-0.2-1.1,0-2.2-0.7-3.2c0.2-0.2,0.3-0.4,0.5-0.6c0.2-0.4,0.4-0.8,0.3-1.2c-0.1-0.5-0.5-1-0.9-1.2 c-1.2-0.6-2.1-0.4-3.3,0c-0.5,0.2-1.2,0.2-1.6-0.2c-0.2-0.1-0.3-0.3-0.4-0.5c-0.7-0.9-2.2-1-3-0.2s-1.1,1.4-2.2,1.8 c-0.7,0.2-1.5,0.5-2,1.1v2.1c0.1,0.2,0.2,0.4,0.2,0.7c0.1,0.3-0.1,0.6-0.2,0.8v4.5c0.6,0.6,0.5,1.4,0.5,2.3c0,0.5-0.3,0.8-0.5,1.2 v1.5c0.4,0.5,1.2,0.5,1.8,0.2v0.3c0,0.2,0.2,0.4,0.4,0.4h0.4l-0.6,4.3H127l-1.2,0.4v87h1.6h0.6v-1.4h-0.6v-0.4l-0.6-2.2h-0.4v-0.3 h0.8l1.5-26.3l6.3-17.2l9.4,10.7l-7.3,22.3l0.9,0.1l-0.3,0.6h-0.5l-1.3,1.6v1.3h-0.5v1h0.5h14h0.4v-1H150v-0.1 c0-0.9-0.6-1.7-1.5-1.8l-4.7-1h-3.3l0.2-0.4l0.9,0.1l11.8-24.6l-11.6-20l-0.6-1l1.4-17.5l9.7,1.3c0.5,0.1,1-0.1,1.4-0.5 c0.1-0.1,0.2-0.3,0.3-0.4l10.7-11.9v0.3c0,0.2,0.1,0.3,0.3,0.3h2.6c0.2,0,0.3-0.1,0.3-0.3l-0.1-1.7c0.4-0.2,0.7-0.5,0.9-1 c0.2-0.6,0-0.7-0.1-1.2c-0.1-0.4,0.1-0.7-0.3-0.9c0,0-0.1,0-0.1-0.1s0-0.2,0.1-0.2c0.3-0.3,0.2-0.9-0.1-1.1 c-0.1-0.1-0.3-0.2-0.5-0.3l-0.1-2c0-0.2-0.2-0.3-0.3-0.3h-0.5h0.6c0.1,0,0.1,0,0.1-0.1v-0.3h-0.7V112v-0.4v-0.2v-0.1 c0-0.1,0.1-0.1,0.1-0.2l0.4-0.2l3-1.4l3-1.4l0.8-0.4l0.4-0.2l0.2-0.1l0,0l0,0l0,0c0.1,0,0.1-0.1,0.1-0.1c0.2-0.1,0.3-0.3,0.3-0.5 c0-0.1,0-0.1,0-0.2v-0.1v-0.1v-0.2v-0.8V102v-0.8v-0.1C175.3,101.2,175.3,101.1,175.3,101.1z M164.7,121.8l-0.2-0.1 c0.1,0,0.1,0,0.2-0.1V121.8z" class="st42"/><g><g><path d="M173.3,101.3c0-0.1,0-0.1,0-0.2s-0.1-0.2-0.2-0.3c-0.1-0.1-0.2-0.1-0.4-0.1l0,0l0,0h-0.1h-0.1h-1.7v0.1v0.1 v0.1v0.1v0.1h1.7h0.2l0,0l0,0c0,0,0,0,0,0.1v0.8v3.4v0.8v0.2v0.1l0,0l0,0c0,0.1-0.1,0.1-0.1,0.2l0,0l0,0l0,0l0,0l-0.2,0.1 l-0.4,0.2l-0.8,0.4l-3,1.4l-3,1.4l-0.4,0.2c-0.1,0.1-0.2,0.1-0.3,0.2s-0.1,0.2-0.2,0.3c0,0.1-0.1,0.2-0.1,0.3l0,0l0,0v0.1v0.1 v0.4v1.7h0.1h0.1h0.1h0.1h0.1v-1.7v-0.4v-0.2v-0.1c0-0.1,0.1-0.1,0.1-0.2l0.4-0.2l3-1.4l3-1.4l0.8-0.4l0.4-0.2l0.2-0.1l0,0l0,0 l0,0c0.1,0,0.1-0.1,0.1-0.1c0.2-0.1,0.3-0.3,0.3-0.5c0-0.1,0-0.1,0-0.2v-0.1v-0.1v-0.2v-0.8v-3.4v-0.8 C173.3,101.4,173.3,101.3,173.3,101.3z" class="st6"/><path d="M172.2,103c-0.1,0-0.2,0-0.3,0c0-1.3,0-2.5,0-3.8c0.1,0,0.2,0,0.3,0C172.4,100.4,172.4,101.7,172.2,103z" class="st16"/><path d="M155.5,102.8c0.1,0,0.2,0,0.3,0c0-1.3,0-2.5,0-3.8c-0.1,0-0.2,0-0.3,0C155.4,100.2,155.4,101.5,155.5,102.8 z" class="st16"/><path d="M172.1,98.8c0.1,1.5,0.1,3,0,4.5c-5.5,0-10.9-0.1-16.4-0.1c-0.1-1.5-0.1-3,0-4.5 C161.1,98.7,166.6,98.7,172.1,98.8z" class="st51"/><path d="M155.6,100.9c0,0.7,0,1.5,0.1,2.2c5.5,0,10.9,0.1,16.4,0.1c0.1-0.7,0.1-1.5,0.1-2.2 C166.6,101,161.1,100.9,155.6,100.9z" class="st5"/><path d="M162.6,122.5c0,0.2,0.1,0.3,0.3,0.3h2.6c0.2,0,0.3-0.1,0.3-0.3l-0.3-8.5c0-0.2-0.2-0.3-0.3-0.3h-1.9 c-0.2,0-0.3,0.1-0.3,0.3L162.6,122.5z" class="st16"/><path d="M165.4,113.3v0.3c0,0.1,0,0.1-0.1,0.1h-2c-0.1,0-0.1,0-0.1-0.1v-0.3H165.4z" class="st52"/><path d="M164.4,113.7h-1c-0.2,0-0.3,0.1-0.3,0.3l-0.4,8.5c0,0.2,0.1,0.3,0.3,0.3h1.3L164.4,113.7z" class="st53"/></g><path d="M166.1,116.3c-0.8-0.8-2.2,0.2-3,0.5c0.5-0.2,0.7-1.1,0.3-1.5c-0.1-0.1-0.1-0.1-0.2-0.1c-0.1,0-0.2,0-0.3,0 c-0.5,0.2-1.1,0.4-1.6,0.6s-1,0.4-1.3,0.9c-0.2,0.3-0.3,0.6-0.3,1c-0.1,0.7-0.1,1.4,0,2.2v0.8c0.5,0.6,1.3,0.6,2,1 c0.2,0.1,0.4,0.2,0.6,0.1c0.2,0,0.4-0.1,0.6-0.2c0.7-0.3,1.5-0.6,2.3-0.6c0.7,0,1.3-0.4,1.5-1.1c0.2-0.6,0-0.7-0.1-1.2 c-0.1-0.4,0.1-0.7-0.3-0.9c0,0-0.1,0-0.1-0.1s0-0.2,0.1-0.2C166.5,117.1,166.4,116.6,166.1,116.3z" class="st54"/><rect width="2.5" height="3.6" x="121.9" y="205" class="st54"/><rect width="3.6" height="2.5" x="135.4" y="195.4" class="st54" transform="matrix(0.434 -0.9009 0.9009 0.434 -99.5542 234.931)"/><path d="M121.4,103.1c0-0.2,0-0.4-0.1-0.6c-0.2-0.3-0.5-0.4-0.8-0.4s-0.6,0-0.9-0.1s-0.5-0.3-0.8-0.3 c-0.7-0.1-1.3,0.9-2,0.7c-0.2,0-0.3-0.1-0.5-0.2c-0.6-0.2-1.2,0.3-1.3,0.9c-0.2,0.6,0,1.2,0.1,1.8c0.2,0.8,0.9,2.2,1.4,2.9 c1.3,0,1.6,0.4,2.9,0.5c0,0,0.6-1,0.5-1h0.1c0.1-0.3,0.5-0.6,0.7-0.9c0.3-0.3,0.6-0.7,0.8-1.1c0.1-0.3,0.1-0.7,0.1-1.1 C121.4,103.9,121.4,103.5,121.4,103.1z" class="st54"/><polygon points="131.5 124.4 125.7 124.4 126.7 116.8 130 116.8" class="st54"/><polygon points="123.7 149.3 118.9 179.4 121.3 207 125.2 207 126.8 180.7 133.1 163.5 142.5 174.2 135.1 196.5 139.6 196.7 151.4 172.1 138.1 149.3" class="st47"/><g><polygon points="125.7 149.3 123.7 149.3 118.9 179.4 121.3 207 121.8 207 120.9 179.4" class="st55"/></g><g><polygon points="142.9 173.8 134.6 162 133.1 163.5 142.5 174.2" class="st48"/></g><polygon points="130 116.8 126.7 116.8 126.1 121.4 130.6 119.9" class="st42"/><path d="M132.9,119.6H126c-0.2,0-0.4-0.2-0.4-0.4v-14.4h6.9c0.9,0,1.7,0.2,2.5,0.6c2.3,1.2,1.8,2.8,2,4.3 c0.2,1,0.5,2,0.7,3c0,0.2-0.1,0.4-0.3,0.4c-0.6,0-1.6,0.1-1.6,0.1l0.4,2.5C136.5,117.7,134.9,119.6,132.9,119.6z" class="st49"/><g><path d="M136.6,113.1c-1.7-1-2.7,1.1-3.9,1.7c-0.6,0.2-1.4,0.2-1.7-0.4c-0.5-0.7-0.9-2.1-0.8-2.9 c0.1-0.8,0.2-1.6,0.5-2.3c0.4-0.7,1-1.5,1.8-1.9c0.4-0.2,0.8-0.3,1.2-0.2c0.6,0.1,0.9,0.3,1.5,0.1c0.6-0.2,1.2-0.8,1.6-1.4 c0.2-0.4,0.4-0.8,0.3-1.2c-0.1-0.5-0.5-1-0.9-1.2c-1.2-0.6-2.1-0.4-3.3,0c-0.5,0.2-1.2,0.2-1.6-0.2c-0.2-0.1-0.3-0.3-0.4-0.5 c-0.7-0.9-2.2-1-3-0.2s-1.1,1.4-2.2,1.8c-0.7,0.2-1.6,0.6-2.1,1.2c-0.7,1.1,0.2,1.7,0.3,2.7c0.1,0.5-0.3,0.9-0.5,1.3 c-0.5,0.8-0.7,1.8-0.5,2.7c0.1,0.4,0.3,0.9,0.6,1.1c0.8,0.6,0.7,1.5,0.7,2.5c0,0.8-0.7,1.2-0.7,1.9c-0.1,1.5,2.2,1.5,2.7,0.3 c0.6-1.6,0.1-3.4,0.1-5c0-0.9,1-2.1,2-1.4c0.6,0.4,0.5,1,0.5,1.6c0,0.9-0.1,1.8-0.1,2.7c-0.1,1.3-0.6,3.1,0.8,4 c1.3,0.7,2.4,0.3,3.8,0.3c0.7,0,1.4,0,1.9-0.4c0.7-0.5,1-1.3,1.2-2.1c0.2-0.5,0.3-1.1,0.5-1.6s0.3-1,0.3-1.6 C137.2,113.9,137,113.4,136.6,113.1z" class="st56"/></g><path d="M123.7,149.3l-0.8,4.9c1.4,0,3.3,0.3,4.6-0.2c1.5-0.6,2.8-1.9,4.5-1.8c0.8,0.1,1.5,0.4,2.2,0.6 c1,0.3,2.1,0.3,3.1,0.1c0.9-0.2,1.6-0.7,2.5-0.9l-1.6-2.7H123.7L123.7,149.3z" class="st42"/><path d="M130.8,123.8c0,0,1.5-1.5,5.1,0c3.5,1.5,10.9,5.3,10.9,5.3l12.6-8.7l3.6,1.6l-11,12.1c-0.3,0.6-1,1-1.7,0.9 l-9.7-1.3l-1.4,17.5c-0.9,0.1-1.6,0.7-2.5,0.9c-1,0.2-2,0.2-3-0.1c-0.7-0.2-1.4-0.6-2.1-0.6c-1.6-0.1-2.8,1.1-4.3,1.7 c-1.4,0.6-3.8,0.1-5.2,0.3c-0.4-1.8,1.2-4,1-5.9c-0.3-2.9-0.9-6-2.6-8.4l-8.9-17.2l4.3-13.9h4.1l-2.3,11.6l3.3,5.8l4.1-1.5 L130.8,123.8L130.8,123.8z" class="st14"/><polygon points="148.2 129.1 159.8 120.6 159.3 120.3 146.8 129.1" class="st57"/><path d="M123.9,153.2c0.7,0,1.4,0.1,2,0C125.2,153.2,124.5,153.2,123.9,153.2z" class="st57"/><path d="M124.5,147.4c-0.3-2.9-0.9-6-2.6-8.4l-8.9-17.2l3.3-13.9h-0.5l-4.3,13.9l8.9,17.2c1.7,2.4,2.3,5.5,2.6,8.4 c0.2,1.9-1.4,4.1-1,5.9c0.4-0.1,0.9-0.1,1.5,0C123.2,151.4,124.7,149.2,124.5,147.4z" class="st57"/><g><path d="M148.7,133.5l-9.7-1.3c0,0-0.8,19.1,0.1,18.9l1.4-17.5l9.7,1.3c0.7,0.1,1.4-0.3,1.7-0.9 C151.9,134.1,149.4,133.6,148.7,133.5z" class="st58"/></g><polygon points="125.4 211.3 120.9 211.3 120.9 209.3 121.5 207.3 124.8 207.3 125.4 209.5" class="st14"/><rect width="5.7" height="1.4" x="120.3" y="209.9" class="st19"/><path d="M148,201h-14v-2.3l1.3-1.6h6.5l4.7,1c0.9,0.2,1.5,1,1.5,1.8V201z" class="st14"/><rect width="14.9" height="1" x="133.5" y="200" class="st19"/></g></g></svg>